<svg width="37" height="37" viewBox="0 0 37 37" fill="none" xmlns="http://www.w3.org/2000/svg">
<path d="M3.97853 10.116L18.5 1.73205L33.0215 10.116V26.884L18.5 35.2679L3.97853 26.884V10.116Z" fill="#31439C" stroke="white" stroke-width="3"/>
<path d="M8.70072 16.2414C8.5874 16.3673 8.53569 16.5397 8.56026 16.7096C8.58483 16.8796 8.683 17.0287 8.82701 17.115L14.6027 20.565L20.8156 15.8425L16.2417 22.258L19.5809 28.213C19.6517 28.3401 19.7675 28.4337 19.9039 28.4743C20.0402 28.5149 20.1865 28.4993 20.312 28.4308C20.4374 28.3623 20.5323 28.2461 20.5764 28.1069L26.0532 11.1485C26.0956 11.0154 26.0885 10.8709 26.0334 10.7428C25.9784 10.6148 25.8791 10.5123 25.755 10.4556C25.631 10.3987 25.4909 10.3913 25.3619 10.4351L8.92931 16.0875C8.84153 16.1179 8.76268 16.1707 8.70021 16.2411L8.70072 16.2414Z" fill="white"/>
</svg>
