<svg width="76" height="76" viewBox="0 0 76 76" fill="none" xmlns="http://www.w3.org/2000/svg">
<path d="M6.59103 19.866L38 1.73205L69.409 19.866V56.134L38 74.2679L6.59103 56.134V19.866Z" fill="white" stroke="#31439C" stroke-width="3"/>
<path d="M17.3008 33.6114C17.0681 33.8619 16.9619 34.2049 17.0123 34.5431C17.0628 34.8813 17.2644 35.1781 17.5602 35.3498L29.4238 42.2157L42.1854 32.8174L32.7903 45.5849L39.6494 57.4359C39.7948 57.6888 40.0326 57.8751 40.3128 57.9559C40.5928 58.0367 40.8933 58.0056 41.151 57.8693C41.4086 57.7329 41.6035 57.5017 41.6941 57.2248L52.9438 23.476C53.0309 23.2111 53.0163 22.9234 52.9031 22.6686C52.7901 22.4138 52.5862 22.2099 52.3313 22.0969C52.0764 21.9837 51.7887 21.9691 51.5238 22.0562L17.7704 33.305C17.5901 33.3655 17.4281 33.4707 17.2998 33.6108L17.3008 33.6114Z" fill="#31439C"/>
</svg>
