<svg width="81" height="78" viewBox="0 0 81 78" fill="none" xmlns="http://www.w3.org/2000/svg">
<g clip-path="url(#clip0_3_28)">
<path d="M27.02 53.93V69.03L40.1 76.58L53.18 69.03V53.93L40.1 46.37L27.02 53.93Z" fill="#FEB51E" stroke="white" stroke-miterlimit="10"/>
<path d="M53.46 8.13002V23.23L66.54 30.78L79.61 23.23V8.13002L66.54 0.580017L53.46 8.13002Z" fill="#FEB51E" stroke="white" stroke-miterlimit="10"/>
<path d="M27.02 8.13002V23.23L40.1 30.78L53.18 23.23V8.13002L40.1 0.580017L27.02 8.13002Z" fill="#FEB51E" stroke="white" stroke-miterlimit="10"/>
<path d="M0.5 8.13002V23.23L13.58 30.78L26.66 23.23V8.13002L13.58 0.580017L0.5 8.13002Z" fill="#FEB51E" stroke="white" stroke-miterlimit="10"/>
<path d="M40.26 31.01V46.12L53.34 53.67L66.42 46.12V31.01L53.34 23.46L40.26 31.01Z" fill="#FEB51E" stroke="white" stroke-miterlimit="10"/>
<path d="M13.86 31.01V46.12L26.94 53.67L40.02 46.12V31.01L26.94 23.46L13.86 31.01Z" fill="#FEB51E" stroke="white" stroke-miterlimit="10"/>
<path d="M18.32 10.86L15.06 19.88H12.09L8.83002 10.86H12.07L13.65 16.19L15.22 10.86H18.32Z" fill="#41014A"/>
<path d="M30.79 34.4V42.97H28.52V39.63H25.52V42.97H23.25V34.4H25.52V37.61H28.52V34.4H30.79Z" fill="#41014A"/>
<path d="M57.21 39.45V41.4L55.76 42.85H49.71V34.28H55.51L56.96 35.73V37.65L56.19 38.42L57.21 39.45ZM51.98 37.67H54.32L54.69 37.3V36.52L54.41 36.24H51.98V37.66V37.67ZM54.94 40.61V39.92L54.47 39.45H51.97V40.89H54.65L54.93 40.61H54.94Z" fill="#41014A"/>
<path d="M44.26 58.89V64.06L42.56 65.76H38.2L36.5 64.06V58.89L38.2 57.19H42.56L44.26 58.89ZM41.99 63.21V59.73L41.46 59.2H39.29L38.76 59.73V63.21L39.29 63.74H41.46L41.99 63.21Z" fill="#41014A"/>
<path d="M67.84 14.84V18.28L68.52 18.96H70.21V21.41H66.7L64.77 19.48V14.83H62.93V12.38H64.95L65.38 9.16003H67.83V12.38H70.21V14.83H67.83L67.84 14.84Z" fill="#41014A"/>
</g>
<defs>
<clipPath id="clip0_3_28">
<rect width="80.11" height="77.15" fill="white"/>
</clipPath>
</defs>
</svg>
